<svg xmlns="http://www.w3.org/2000/svg" width="30" height="30" fill="none" viewBox="0 0 24 24"><path fill="#081F3C" d="M11 4a1 1 0 0 1 1-1h.01a1 1 0 0 1 1 1v.01a1 1 0 0 1-1 1H12a1 1 0 0 1-1-1V4ZM7 8.75A2.25 2.25 0 0 0 4.75 11v6A2.25 2.25 0 0 0 7 19.25h10A2.25 2.25 0 0 0 19.25 17v-6A2.25 2.25 0 0 0 17 8.75h-1a.75.75 0 0 1 0-1.5h1A3.75 3.75 0 0 1 20.75 11v6A3.75 3.75 0 0 1 17 20.75H7A3.75 3.75 0 0 1 3.25 17v-6A3.75 3.75 0 0 1 7 7.25h1.5a.75.75 0 0 1 0 1.5H7Z"/><path fill="#081F3C" d="m9.47 14.53 2 2a.75.75 0 0 0 1.06 0l2-2a.75.75 0 1 0-1.06-1.06l-.72.72V7a.75.75 0 0 0-1.5 0v7.19l-.72-.72a.75.75 0 1 0-1.06 1.06Z"/></svg>