<svg xmlns="http://www.w3.org/2000/svg" width="52" height="32" fill="none"><path fill="#4E91E6" fill-rule="evenodd" d="M27.427 2.91h2.584v26.493A2.59 2.59 0 0 1 27.427 32h-2.584V5.507a2.59 2.59 0 0 1 2.584-2.598Zm11.885 10.492v9.87c0 2.182 1.61 3.845 3.721 3.845 2.091 0 3.72-1.663 3.72-3.78v-9.934a2.591 2.591 0 0 1 2.585-2.598h2.584v12.26C51.922 28 47.942 32 43.033 32c-4.909 0-8.888-4-8.888-8.935v-12.26h2.583a2.59 2.59 0 0 1 2.584 2.598Zm-34.107-.63V2.91H2.622A2.594 2.594 0 0 0 .038 5.507v16.104h.004c.16 5.766 4.724 10.39 10.331 10.39 5.708 0 10.335-4.624 10.336-10.702l-.001-.125v-.134c0-5.882-4.257-10.65-9.508-10.65-2.273 0-4.359.893-5.995 2.383Zm-.31 8.372c0-3.3 2.407-5.974 5.375-5.974s5.374 2.674 5.374 5.974c0 3.299-2.406 5.974-5.374 5.974-2.968 0-5.375-2.675-5.375-5.974Z" clip-rule="evenodd"/><path fill="#0C1011" d="M12.44 4.156c1.142 0 2.067-.93 2.067-2.078A2.072 2.072 0 0 0 12.44 0c-1.141 0-2.067.93-2.067 2.078 0 1.148.926 2.078 2.067 2.078Z"/></svg>